<?xml version="1.0" encoding="utf-8"?>
<svg xmlns="http://www.w3.org/2000/svg" xmlns:xlink="http://www.w3.org/1999/xlink" style="margin: auto; background: none; display: block; shape-rendering: auto;" width="144px" height="144px" viewBox="0 0 100 100" preserveAspectRatio="xMidYMid">
<g transform="rotate(0 50 50)">
  <rect x="47" y="18.5" rx="3" ry="9.5" width="6" height="19" fill="#93dbe9">
    <animate attributeName="opacity" values="1;0" keyTimes="0;1" dur="2.0833333333333335s" begin="-1.9345238095238095s" repeatCount="indefinite"></animate>
  </rect>
</g><g transform="rotate(25.714285714285715 50 50)">
  <rect x="47" y="18.5" rx="3" ry="9.5" width="6" height="19" fill="#689cc5">
    <animate attributeName="opacity" values="1;0" keyTimes="0;1" dur="2.0833333333333335s" begin="-1.7857142857142858s" repeatCount="indefinite"></animate>
  </rect>
</g><g transform="rotate(51.42857142857143 50 50)">
  <rect x="47" y="18.5" rx="3" ry="9.5" width="6" height="19" fill="#5e6fa3">
    <animate attributeName="opacity" values="1;0" keyTimes="0;1" dur="2.0833333333333335s" begin="-1.6369047619047619s" repeatCount="indefinite"></animate>
  </rect>
</g><g transform="rotate(77.14285714285714 50 50)">
  <rect x="47" y="18.5" rx="3" ry="9.5" width="6" height="19" fill="#3b4368">
    <animate attributeName="opacity" values="1;0" keyTimes="0;1" dur="2.0833333333333335s" begin="-1.4880952380952381s" repeatCount="indefinite"></animate>
  </rect>
</g><g transform="rotate(102.85714285714286 50 50)">
  <rect x="47" y="18.5" rx="3" ry="9.5" width="6" height="19" fill="#191d3a">
    <animate attributeName="opacity" values="1;0" keyTimes="0;1" dur="2.0833333333333335s" begin="-1.3392857142857144s" repeatCount="indefinite"></animate>
  </rect>
</g><g transform="rotate(128.57142857142858 50 50)">
  <rect x="47" y="18.5" rx="3" ry="9.5" width="6" height="19" fill="#d9dbee">
    <animate attributeName="opacity" values="1;0" keyTimes="0;1" dur="2.0833333333333335s" begin="-1.1904761904761905s" repeatCount="indefinite"></animate>
  </rect>
</g><g transform="rotate(154.28571428571428 50 50)">
  <rect x="47" y="18.5" rx="3" ry="9.5" width="6" height="19" fill="#b3b7e2">
    <animate attributeName="opacity" values="1;0" keyTimes="0;1" dur="2.0833333333333335s" begin="-1.0416666666666667s" repeatCount="indefinite"></animate>
  </rect>
</g><g transform="rotate(180 50 50)">
  <rect x="47" y="18.5" rx="3" ry="9.5" width="6" height="19" fill="#93dbe9">
    <animate attributeName="opacity" values="1;0" keyTimes="0;1" dur="2.0833333333333335s" begin="-0.8928571428571429s" repeatCount="indefinite"></animate>
  </rect>
</g><g transform="rotate(205.71428571428572 50 50)">
  <rect x="47" y="18.5" rx="3" ry="9.5" width="6" height="19" fill="#689cc5">
    <animate attributeName="opacity" values="1;0" keyTimes="0;1" dur="2.0833333333333335s" begin="-0.7440476190476191s" repeatCount="indefinite"></animate>
  </rect>
</g><g transform="rotate(231.42857142857142 50 50)">
  <rect x="47" y="18.5" rx="3" ry="9.5" width="6" height="19" fill="#5e6fa3">
    <animate attributeName="opacity" values="1;0" keyTimes="0;1" dur="2.0833333333333335s" begin="-0.5952380952380952s" repeatCount="indefinite"></animate>
  </rect>
</g><g transform="rotate(257.14285714285717 50 50)">
  <rect x="47" y="18.5" rx="3" ry="9.5" width="6" height="19" fill="#3b4368">
    <animate attributeName="opacity" values="1;0" keyTimes="0;1" dur="2.0833333333333335s" begin="-0.44642857142857145s" repeatCount="indefinite"></animate>
  </rect>
</g><g transform="rotate(282.85714285714283 50 50)">
  <rect x="47" y="18.5" rx="3" ry="9.5" width="6" height="19" fill="#191d3a">
    <animate attributeName="opacity" values="1;0" keyTimes="0;1" dur="2.0833333333333335s" begin="-0.2976190476190476s" repeatCount="indefinite"></animate>
  </rect>
</g><g transform="rotate(308.57142857142856 50 50)">
  <rect x="47" y="18.5" rx="3" ry="9.5" width="6" height="19" fill="#d9dbee">
    <animate attributeName="opacity" values="1;0" keyTimes="0;1" dur="2.0833333333333335s" begin="-0.1488095238095238s" repeatCount="indefinite"></animate>
  </rect>
</g><g transform="rotate(334.2857142857143 50 50)">
  <rect x="47" y="18.5" rx="3" ry="9.5" width="6" height="19" fill="#b3b7e2">
    <animate attributeName="opacity" values="1;0" keyTimes="0;1" dur="2.0833333333333335s" begin="0s" repeatCount="indefinite"></animate>
  </rect>
</g>
<!-- [ldio] generated by https://loading.io/ --></svg>